<svg width="24" height="24" viewBox="0 0 24 24" fill="none" xmlns="http://www.w3.org/2000/svg">
<path d="M15.0625 17.0356V19.8048C15.0625 20.172 14.922 20.5243 14.672 20.7839C14.4219 21.0435 14.0828 21.1895 13.7292 21.1895H4.39583C4.04221 21.1895 3.70307 21.0435 3.45302 20.7839C3.20298 20.5243 3.0625 20.172 3.0625 19.8048V4.57407C3.0625 4.20684 3.20298 3.85466 3.45302 3.595C3.70307 3.33533 4.04221 3.18945 4.39583 3.18945H13.7292C14.0828 3.18945 14.4219 3.33533 14.672 3.595C14.922 3.85466 15.0625 4.20684 15.0625 4.57407V7.3433" stroke="white" stroke-width="2" stroke-linecap="round" stroke-linejoin="round"/>
<path d="M11.0625 12.1895H21.0625" stroke="white" stroke-width="2" stroke-linecap="round" stroke-linejoin="round"/>
<path d="M18.0625 9.18945L21.0625 12.1895L18.0625 15.1895" stroke="white" stroke-width="2" stroke-linecap="round" stroke-linejoin="round"/>
</svg>
