<svg width="24" height="24" viewBox="0 0 24 24" fill="none" xmlns="http://www.w3.org/2000/svg">
<path d="M12.0618 18.0743C6.98865 18.0813 2 15.3717 2 12.0372C2 8.70269 7.01482 5.98298 12.0618 6.00008C17.1088 6.01719 22.1237 8.70269 22.1237 12.0372C22.1237 15.3717 17.135 18.0672 12.0618 18.0743ZM12.0618 16.0619C13.1293 16.0619 14.153 15.6379 14.9077 14.8831C15.6625 14.1283 16.0866 13.1046 16.0866 12.0372C16.0866 10.9698 15.6625 9.94605 14.9077 9.19126C14.153 8.43648 13.1293 8.01245 12.0618 8.01245C10.9944 8.01245 9.9707 8.43648 9.21591 9.19126C8.46113 9.94605 8.0371 10.9698 8.0371 12.0372C8.0371 13.1046 8.46113 14.1283 9.21591 14.8831C9.9707 15.6379 10.9944 16.0619 12.0618 16.0619ZM12.0618 14.0495C11.5281 14.0495 11.0163 13.8375 10.6389 13.4601C10.2615 13.0827 10.0495 12.5709 10.0495 12.0372C10.0495 11.5035 10.2615 10.9916 10.6389 10.6142C11.0163 10.2368 11.5281 10.0248 12.0618 10.0248C12.5955 10.0248 13.1074 10.2368 13.4848 10.6142C13.8622 10.9916 14.0742 11.5035 14.0742 12.0372C14.0742 12.5709 13.8622 13.0827 13.4848 13.4601C13.1074 13.8375 12.5955 14.0495 12.0618 14.0495Z" fill="#34856D"/>
</svg>
