<svg width="24" height="24" viewBox="0 0 24 24" fill="none" xmlns="http://www.w3.org/2000/svg">
<path fill-rule="evenodd" clip-rule="evenodd" d="M15.996 3.28384C16.136 3.14827 16.3145 3.05594 16.509 3.01857C16.7034 2.98121 16.9049 3.00049 17.088 3.07397L19.924 4.20956C20.1686 4.30707 20.3631 4.49421 20.4651 4.72999C20.5671 4.96576 20.5681 5.23095 20.468 5.46746L19.3093 8.206C19.2345 8.38283 19.107 8.53425 18.943 8.6411C18.779 8.74795 18.5858 8.80543 18.388 8.80625C18.1902 8.80708 17.9965 8.75122 17.8316 8.64575C17.6666 8.54028 17.5378 8.38992 17.4613 8.21372L17.004 7.15796L5.48667 11.9102C5.36585 11.96 5.23604 11.9865 5.10466 11.9879C4.97327 11.9893 4.84288 11.9658 4.72092 11.9185C4.59897 11.8713 4.48784 11.8014 4.39389 11.7127C4.29993 11.624 4.22499 11.5183 4.17333 11.4016C4.12168 11.2849 4.09433 11.1596 4.09284 11.0327C4.09135 10.9058 4.11576 10.7799 4.16467 10.6622C4.21357 10.5444 4.28602 10.4371 4.37787 10.3464C4.46972 10.2556 4.57918 10.1833 4.7 10.1334L16.232 5.37604L15.7827 4.3396C15.7058 4.16303 15.685 3.96837 15.723 3.78038C15.761 3.59238 15.856 3.41954 15.996 3.28384ZM19.6667 10.0561C20.0203 10.0561 20.3594 10.1918 20.6095 10.4333C20.8595 10.6747 21 11.0022 21 11.3437V20.3562C21 20.527 20.9298 20.6907 20.8047 20.8114C20.6797 20.9322 20.5101 21 20.3333 21H17C16.8232 21 16.6536 20.9322 16.5286 20.8114C16.4036 20.6907 16.3333 20.527 16.3333 20.3562V11.3437C16.3333 11.0022 16.4738 10.6747 16.7239 10.4333C16.9739 10.1918 17.313 10.0561 17.6667 10.0561H19.6667ZM13.9427 12.3634C13.6925 12.1224 13.3534 11.9871 13 11.9874H11C10.6464 11.9874 10.3072 12.1231 10.0572 12.3645C9.80714 12.606 9.66667 12.9335 9.66667 13.2749V20.3562C9.66667 20.527 9.7369 20.6907 9.86193 20.8114C9.98695 20.9322 10.1565 21 10.3333 21H13.6667C13.8435 21 14.013 20.9322 14.1381 20.8114C14.2631 20.6907 14.3333 20.527 14.3333 20.3562V13.2749C14.3335 13.1056 14.299 12.938 14.232 12.7816C14.165 12.6252 14.0666 12.4831 13.9427 12.3634ZM6.33333 13.9187C6.50843 13.9187 6.68181 13.952 6.84358 14.0167C7.00535 14.0814 7.15233 14.1762 7.27614 14.2958C7.39995 14.4153 7.49817 14.5573 7.56517 14.7135C7.63218 14.8697 7.66667 15.0371 7.66667 15.2062V20.3562C7.66667 20.527 7.59643 20.6907 7.47141 20.8114C7.34638 20.9322 7.17681 21 7 21H3.66667C3.48986 21 3.32029 20.9322 3.19526 20.8114C3.07024 20.6907 3 20.527 3 20.3562V15.2062C3 14.8647 3.14048 14.5372 3.39052 14.2958C3.64057 14.0543 3.97971 13.9187 4.33333 13.9187H6.33333Z" fill="white"/>
</svg>
