<svg width="24" height="24" viewBox="0 0 24 24" fill="none" xmlns="http://www.w3.org/2000/svg">
<path d="M7.5 17H12C12.255 17 12.4689 16.904 12.6417 16.712C12.8145 16.52 12.9006 16.2827 12.9 16C12.9 15.7167 12.8136 15.479 12.6408 15.287C12.468 15.095 12.2544 14.9993 12 15H7.5C7.245 15 7.0311 15.096 6.8583 15.288C6.6855 15.48 6.5994 15.7173 6.6 16C6.6 16.2833 6.6864 16.521 6.8592 16.713C7.032 16.905 7.2456 17.0007 7.5 17ZM16.5 7C16.245 7 16.0311 7.096 15.8583 7.288C15.6855 7.48 15.5994 7.71733 15.6 8V16C15.6 16.2833 15.6864 16.521 15.8592 16.713C16.032 16.905 16.2456 17.0007 16.5 17C16.755 17 16.9689 16.904 17.1417 16.712C17.3145 16.52 17.4006 16.2827 17.4 16V8C17.4 7.71667 17.3136 7.479 17.1408 7.287C16.968 7.095 16.7544 6.99933 16.5 7ZM7.5 13H12C12.255 13 12.4689 12.904 12.6417 12.712C12.8145 12.52 12.9006 12.2827 12.9 12C12.9 11.7167 12.8136 11.479 12.6408 11.287C12.468 11.095 12.2544 10.9993 12 11H7.5C7.245 11 7.0311 11.096 6.8583 11.288C6.6855 11.48 6.5994 11.7173 6.6 12C6.6 12.2833 6.6864 12.521 6.8592 12.713C7.032 12.905 7.2456 13.0007 7.5 13ZM7.5 9H12C12.255 9 12.4689 8.904 12.6417 8.712C12.8145 8.52 12.9006 8.28267 12.9 8C12.9 7.71667 12.8136 7.479 12.6408 7.287C12.468 7.095 12.2544 6.99933 12 7H7.5C7.245 7 7.0311 7.096 6.8583 7.288C6.6855 7.48 6.5994 7.71733 6.6 8C6.6 8.28333 6.6864 8.521 6.8592 8.713C7.032 8.905 7.2456 9.00067 7.5 9ZM4.8 21C4.305 21 3.8811 20.804 3.5283 20.412C3.1755 20.02 2.9994 19.5493 3 19V5C3 4.45 3.1764 3.979 3.5292 3.587C3.882 3.195 4.3056 2.99934 4.8 3H19.2C19.695 3 20.1189 3.196 20.4717 3.588C20.8245 3.98 21.0006 4.45067 21 5V19C21 19.55 20.8236 20.021 20.4708 20.413C20.118 20.805 19.6944 21.0007 19.2 21H4.8ZM4.8 19H19.2V5H4.8V19Z" fill="white"/>
</svg>
