<svg width="24" height="24" viewBox="0 0 24 24" fill="none" xmlns="http://www.w3.org/2000/svg">
<path fill-rule="evenodd" clip-rule="evenodd" d="M11.1969 3.00129C9.77968 3.12827 8.41274 3.59023 7.20825 4.34925C6.00375 5.10827 4.99604 6.14271 4.26783 7.36766C3.53961 8.59261 3.11165 9.97316 3.01907 11.396C2.92649 12.8188 3.17193 14.2434 3.73524 15.5527C4.29855 16.8621 5.16368 18.0189 6.25961 18.9282C7.35555 19.8376 8.65105 20.4735 10.0398 20.7838C11.4285 21.0942 12.8709 21.0701 14.2485 20.7135C15.6262 20.3569 16.8998 19.678 17.9648 18.7326L11.4475 12.5673C11.3685 12.4919 11.3056 12.4012 11.2628 12.3006C11.2199 12.2001 11.1979 12.0918 11.1982 11.9825V3.00129H11.1969ZM19.069 17.5629C20.0725 16.2869 20.7134 14.7629 20.9238 13.1521C21.1343 11.5412 20.9066 9.90325 20.2647 8.41138C19.6229 6.9195 18.5908 5.62911 17.2775 4.67658C15.9642 3.72406 14.4184 3.14479 12.8037 3V11.636L19.069 17.5629Z" fill="white"/>
</svg>
