<svg width="24" height="24" viewBox="0 0 24 24" fill="none" xmlns="http://www.w3.org/2000/svg">
<path fill-rule="evenodd" clip-rule="evenodd" d="M22 12C22 14.6522 20.9464 17.1957 19.0711 19.0711C17.1957 20.9464 14.6522 22 12 22C9.34784 22 6.8043 20.9464 4.92893 19.0711C3.05357 17.1957 2 14.6522 2 12C2 9.34784 3.05357 6.8043 4.92893 4.92893C6.8043 3.05357 9.34784 2 12 2C14.6522 2 17.1957 3.05357 19.0711 4.92893C20.9464 6.8043 22 9.34784 22 12ZM10.2143 9.5C10.2143 9.14682 10.319 8.80157 10.5152 8.50791C10.7114 8.21425 10.9903 7.98537 11.3166 7.85021C11.6429 7.71506 12.002 7.6797 12.3484 7.7486C12.6948 7.8175 13.013 7.98757 13.2627 8.23731C13.5124 8.48705 13.6825 8.80523 13.7514 9.15162C13.8203 9.49802 13.7849 9.85707 13.6498 10.1834C13.5146 10.5097 13.2857 10.7885 12.9921 10.9848C12.6984 11.181 12.3532 11.2857 12 11.2857C11.7158 11.2857 11.4433 11.3986 11.2424 11.5995C11.0415 11.8005 10.9286 12.073 10.9286 12.3571V13.28C10.9286 13.5642 11.0415 13.8367 11.2424 14.0376C11.4433 14.2385 11.7158 14.3514 12 14.3514C12.2842 14.3514 12.5567 14.2385 12.7576 14.0376C12.9585 13.8367 13.0714 13.5642 13.0714 13.28C13.7751 13.0809 14.4092 12.6894 14.9025 12.1496C15.3958 11.6098 15.7287 10.9431 15.8638 10.2244C15.9989 9.50576 15.9308 8.76366 15.6671 8.08158C15.4035 7.3995 14.9548 6.80451 14.3714 6.36352C13.7881 5.92253 13.0933 5.65303 12.3652 5.58534C11.6371 5.51765 10.9045 5.65445 10.2499 5.98035C9.59531 6.30625 9.0446 6.80833 8.65974 7.43012C8.27489 8.05191 8.07114 8.76874 8.07143 9.5C8.07143 9.78416 8.18431 10.0567 8.38524 10.2576C8.58617 10.4585 8.8587 10.5714 9.14286 10.5714C9.42702 10.5714 9.69954 10.4585 9.90047 10.2576C10.1014 10.0567 10.2143 9.78416 10.2143 9.5ZM13.4286 17C13.4286 17.3789 13.2781 17.7422 13.0102 18.0102C12.7422 18.2781 12.3789 18.4286 12 18.4286C11.6211 18.4286 11.2578 18.2781 10.9898 18.0102C10.7219 17.7422 10.5714 17.3789 10.5714 17C10.5714 16.6211 10.7219 16.2578 10.9898 15.9898C11.2578 15.7219 11.6211 15.5714 12 15.5714C12.3789 15.5714 12.7422 15.7219 13.0102 15.9898C13.2781 16.2578 13.4286 16.6211 13.4286 17Z" fill="white"/>
</svg>
