<svg width="24" height="24" viewBox="0 0 24 24" fill="none" xmlns="http://www.w3.org/2000/svg">
<path fill-rule="evenodd" clip-rule="evenodd" d="M4.94931 3.98511C4.94931 3.72385 4.84662 3.47328 4.66384 3.28853C4.48105 3.10379 4.23315 3 3.97465 3C3.71616 3 3.46825 3.10379 3.28547 3.28853C3.10269 3.47328 3 3.72385 3 3.98511V20.0149C3 20.5587 3.43664 21 3.97465 21H19.8342C20.0927 21 20.3406 20.8962 20.5234 20.7115C20.7062 20.5267 20.8089 20.2762 20.8089 20.0149C20.8089 19.7536 20.7062 19.503 20.5234 19.3183C20.3406 19.1336 20.0927 19.0298 19.8342 19.0298H4.94801V3.98511H4.94931ZM16.1864 5.99869C16.0446 5.89648 15.8839 5.82412 15.7139 5.78592C15.5439 5.74772 15.368 5.74445 15.1967 5.77631C15.0254 5.80816 14.8622 5.8745 14.7168 5.97137C14.5714 6.06823 14.4467 6.19366 14.3502 6.34019L10.3502 12.4032L8.42167 10.454C8.17782 10.2074 7.84703 10.0688 7.50206 10.0686C7.15708 10.0685 6.82619 10.2069 6.58217 10.4534C6.33816 10.6998 6.201 11.0342 6.20088 11.3829C6.20076 11.7315 6.33768 12.066 6.58152 12.3126L9.63154 15.394C9.76746 15.5317 9.93193 15.6371 10.1131 15.7027C10.2942 15.7683 10.4875 15.7924 10.679 15.7733C10.8704 15.7542 11.0553 15.6923 11.2203 15.5922C11.3852 15.4921 11.5261 15.3562 11.6328 15.1944L15.7667 8.92513L18.9453 11.2198C19.2259 11.4222 19.5745 11.5036 19.9145 11.4463C20.2544 11.3889 20.5579 11.1973 20.7582 10.9137C20.9584 10.6302 21.039 10.2778 20.9822 9.93421C20.9255 9.59058 20.7359 9.28383 20.4554 9.08144L16.1864 5.99869Z" fill="white"/>
</svg>
