<svg width="24" height="24" viewBox="0 0 24 24" fill="none" xmlns="http://www.w3.org/2000/svg">
<path fill-rule="evenodd" clip-rule="evenodd" d="M4.92857 3.96429C4.92857 3.70854 4.82698 3.46327 4.64614 3.28243C4.4653 3.10159 4.22003 3 3.96429 3C3.70854 3 3.46327 3.10159 3.28243 3.28243C3.10159 3.46327 3 3.70854 3 3.96429V20.0357C3 20.568 3.432 21 3.96429 21H20.0357C20.2915 21 20.5367 20.8984 20.7176 20.7176C20.8984 20.5367 21 20.2915 21 20.0357C21 19.78 20.8984 19.5347 20.7176 19.3539C20.5367 19.173 20.2915 19.0714 20.0357 19.0714H4.92857V15.4971L7.75971 12.4731C8.13386 12.6866 8.56714 12.8074 9.02743 12.8074C9.61114 12.8074 10.1486 12.6146 10.5806 12.2854L12.4101 13.9929C12.2676 14.4224 12.2408 14.882 12.3325 15.3251C12.4242 15.7683 12.6312 16.1795 12.9325 16.5172C13.2338 16.8549 13.6188 17.1072 14.0487 17.2487C14.4787 17.3901 14.9383 17.4157 15.3812 17.3228C15.8242 17.23 16.2348 17.022 16.5718 16.7198C16.9087 16.4176 17.16 16.0319 17.3003 15.6016C17.4406 15.1714 17.465 14.7117 17.371 14.269C17.277 13.8262 17.0679 13.4161 16.7649 13.08L16.7674 13.0736L18.2576 8.98114C18.8515 8.92793 19.4084 8.66989 19.8329 8.2512C20.2575 7.83252 20.5232 7.27924 20.5847 6.68615C20.6461 6.09306 20.4995 5.49705 20.1698 5.00021C19.8401 4.50337 19.3479 4.13662 18.7776 3.96278C18.2072 3.78893 17.5941 3.8188 17.0434 4.04728C16.4926 4.27576 16.0385 4.68863 15.7586 5.21517C15.4788 5.74171 15.3908 6.34915 15.5096 6.93346C15.6285 7.51776 15.9468 8.04258 16.41 8.418L15.0201 12.2366C14.5496 12.2076 14.0799 12.3067 13.6611 12.5233L11.6786 10.6719C11.6462 10.6417 11.6119 10.6138 11.5757 10.5883C11.6274 10.2099 11.5941 9.82474 11.4782 9.46085C11.3622 9.09696 11.1666 8.76349 10.9056 8.48472C10.6446 8.20595 10.3247 7.98889 9.96916 7.84934C9.61367 7.70979 9.23153 7.65127 8.85056 7.67802C8.46959 7.70477 8.09938 7.81613 7.76687 8.00399C7.43436 8.19185 7.14793 8.45149 6.92841 8.764C6.70889 9.07652 6.56181 9.43404 6.49789 9.81056C6.43396 10.1871 6.45479 10.5731 6.55886 10.9406L6.52029 10.9779L4.92857 12.675V3.96429Z" fill="white"/>
</svg>
