<svg width="14" height="14" viewBox="0 0 14 14" fill="none" xmlns="http://www.w3.org/2000/svg">
<path d="M9.20516 7.42C9.28723 7.33803 9.33339 7.22682 9.3335 7.11083V6.88916C9.33215 6.77342 9.28618 6.66267 9.20516 6.58L6.20683 3.5875C6.15206 3.53228 6.07752 3.50122 5.99975 3.50122C5.92198 3.50122 5.84743 3.53228 5.79266 3.5875L5.3785 4.00166C5.32363 4.05542 5.29271 4.12901 5.29271 4.20583C5.29271 4.28265 5.32363 4.35623 5.3785 4.41L7.97433 7L5.3785 9.59C5.32328 9.64476 5.29222 9.71931 5.29222 9.79708C5.29222 9.87485 5.32328 9.9494 5.3785 10.0042L5.79266 10.4125C5.84743 10.4677 5.92198 10.4988 5.99975 10.4988C6.07752 10.4988 6.15206 10.4677 6.20683 10.4125L9.20516 7.42Z" fill="#285B4C"/>
</svg>
