<svg width="14" height="14" viewBox="0 0 14 14" fill="none" xmlns="http://www.w3.org/2000/svg">
<path d="M4.79484 7.42C4.71277 7.33803 4.66661 7.22682 4.6665 7.11083V6.88916C4.66785 6.77342 4.71382 6.66267 4.79484 6.58L7.79317 3.5875C7.84794 3.53228 7.92248 3.50122 8.00025 3.50122C8.07802 3.50122 8.15257 3.53228 8.20734 3.5875L8.6215 4.00166C8.67637 4.05542 8.7073 4.12901 8.7073 4.20583C8.7073 4.28265 8.67637 4.35623 8.6215 4.41L6.02567 7L8.6215 9.59C8.67672 9.64476 8.70778 9.71931 8.70778 9.79708C8.70778 9.87485 8.67672 9.9494 8.6215 10.0042L8.20734 10.4125C8.15257 10.4677 8.07802 10.4988 8.00025 10.4988C7.92248 10.4988 7.84794 10.4677 7.79317 10.4125L4.79484 7.42Z" fill="#285B4C"/>
</svg>
